<svg width="20" height="20" viewBox="0 0 20 20" fill="currentColor" xmlns="http://www.w3.org/2000/svg">
<g clip-path="url(#clip0_1025_4348)">
<path d="M13.3337 13.3334C13.3337 13.5544 13.2459 13.7663 13.0896 13.9226C12.9333 14.0789 12.7213 14.1667 12.5003 14.1667H10.8337V15.8334C10.8337 16.0544 10.7459 16.2663 10.5896 16.4226C10.4333 16.5789 10.2213 16.6667 10.0003 16.6667C9.77931 16.6667 9.56735 16.5789 9.41107 16.4226C9.25479 16.2663 9.16699 16.0544 9.16699 15.8334V14.1667H7.50033C7.27931 14.1667 7.06735 14.0789 6.91107 13.9226C6.75479 13.7663 6.66699 13.5544 6.66699 13.3334C6.66699 13.1123 6.75479 12.9004 6.91107 12.7441C7.06735 12.5878 7.27931 12.5 7.50033 12.5H9.16699V10.8334C9.16699 10.6123 9.25479 10.4004 9.41107 10.2441C9.56735 10.0878 9.77931 10 10.0003 10C10.2213 10 10.4333 10.0878 10.5896 10.2441C10.7459 10.4004 10.8337 10.6123 10.8337 10.8334V12.5H12.5003C12.7213 12.5 12.9333 12.5878 13.0896 12.7441C13.2459 12.9004 13.3337 13.1123 13.3337 13.3334ZM18.3337 8.73752V15.8334C18.3323 16.938 17.8929 17.9971 17.1118 18.7782C16.3307 19.5593 15.2717 19.9987 14.167 20H5.83366C4.729 19.9987 3.66996 19.5593 2.88884 18.7782C2.10773 17.9971 1.66832 16.938 1.66699 15.8334V4.16669C1.66832 3.06202 2.10773 2.00298 2.88884 1.22187C3.66996 0.440754 4.729 0.00134242 5.83366 1.92072e-05H9.59616C10.3625 -0.00195323 11.1216 0.148009 11.8297 0.441235C12.5377 0.734461 13.1806 1.16513 13.7212 1.70835L16.6245 4.61335C17.168 5.15355 17.599 5.79623 17.8923 6.50416C18.1857 7.21209 18.3357 7.9712 18.3337 8.73752ZM12.5428 2.88669C12.2806 2.63265 11.9861 2.41412 11.667 2.23669V5.83335C11.667 6.05437 11.7548 6.26633 11.9111 6.42261C12.0674 6.57889 12.2793 6.66668 12.5003 6.66668H16.097C15.9195 6.34768 15.7006 6.05347 15.4462 5.79168L12.5428 2.88669ZM16.667 8.73752C16.667 8.60002 16.6403 8.46835 16.6278 8.33335H12.5003C11.8373 8.33335 11.2014 8.06996 10.7326 7.60112C10.2637 7.13228 10.0003 6.49639 10.0003 5.83335V1.70585C9.86532 1.69335 9.73283 1.66669 9.59616 1.66669H5.83366C5.17062 1.66669 4.53473 1.93008 4.06589 2.39892C3.59705 2.86776 3.33366 3.50364 3.33366 4.16669V15.8334C3.33366 16.4964 3.59705 17.1323 4.06589 17.6011C4.53473 18.07 5.17062 18.3333 5.83366 18.3333H14.167C14.83 18.3333 15.4659 18.07 15.9348 17.6011C16.4036 17.1323 16.667 16.4964 16.667 15.8334V8.73752Z" fill="currentColor"/>
</g>
<defs>
<clipPath id="clip0_1025_4348">
<rect width="20" height="20" fill="currentColor"/>
</clipPath>
</defs>
</svg>
