<svg width="16" height="16" viewBox="0 0 16 16" fill="currentColor" xmlns="http://www.w3.org/2000/svg">
<g clip-path="url(#clip0_1025_4114)">
<path d="M15.182 5.14763C14.8694 4.78736 14.483 4.49848 14.0491 4.30053C13.6151 4.10258 13.1437 4.00019 12.6667 4.00029H10.0073L10.2313 2.63963C10.3106 2.16047 10.215 1.66878 9.96191 1.25425C9.70885 0.839722 9.31521 0.529968 8.8528 0.381487C8.39038 0.233006 7.89 0.255693 7.44292 0.445409C6.99584 0.635125 6.63184 0.979229 6.41733 1.41496L5.14133 4.00029H3.33333C2.4496 4.00135 1.60237 4.35288 0.97748 4.97777C0.352588 5.60266 0.00105857 6.4499 0 7.33363L0 10.667C0.00105857 11.5507 0.352588 12.3979 0.97748 13.0228C1.60237 13.6477 2.4496 13.9992 3.33333 14.0003H12.2C13.0023 13.997 13.7768 13.7058 14.3825 13.1797C14.9883 12.6536 15.3851 11.9276 15.5007 11.1336L15.9707 7.80029C16.0369 7.32745 16.0007 6.8459 15.8646 6.38825C15.7286 5.93059 15.4958 5.5075 15.182 5.14763ZM1.33333 10.667V7.33363C1.33333 6.80319 1.54405 6.29449 1.91912 5.91941C2.29419 5.54434 2.8029 5.33363 3.33333 5.33363H4.66667V12.667H3.33333C2.8029 12.667 2.29419 12.4562 1.91912 12.0812C1.54405 11.7061 1.33333 11.1974 1.33333 10.667ZM14.6473 7.61296L14.1767 10.9463C14.1079 11.4223 13.8705 11.8578 13.5077 12.1735C13.145 12.4893 12.6809 12.6644 12.2 12.667H6V5.15629C6.06283 5.10156 6.11484 5.03553 6.15333 4.96163L7.61267 2.00496C7.66739 1.90625 7.74476 1.82193 7.83842 1.75893C7.93207 1.69594 8.03934 1.65607 8.1514 1.6426C8.26346 1.62913 8.37712 1.64244 8.48304 1.68144C8.58896 1.72045 8.6841 1.78403 8.76067 1.86696C8.82617 1.94312 8.87405 2.0328 8.9009 2.1296C8.92775 2.2264 8.93291 2.32794 8.916 2.42696L8.564 4.56029C8.54855 4.65561 8.55399 4.75315 8.57995 4.84616C8.60591 4.93917 8.65176 5.02543 8.71433 5.09898C8.77691 5.17252 8.85472 5.2316 8.94237 5.27211C9.03003 5.31263 9.12544 5.33361 9.222 5.33363H12.6667C12.9529 5.33359 13.2359 5.395 13.4964 5.51372C13.7569 5.63244 13.9888 5.8057 14.1766 6.02178C14.3644 6.23787 14.5036 6.49174 14.5848 6.76625C14.666 7.04075 14.6873 7.3295 14.6473 7.61296Z" fill="currentColor"/>
</g>
<defs>
<clipPath id="clip0_1025_4114">
<rect width="16" height="16" fill="currentColor"/>
</clipPath>
</defs>
</svg>
